<svg width="71" height="84" viewBox="0 0 71 84" fill="none" xmlns="http://www.w3.org/2000/svg">
<g clip-path="url(#clip0_8_105)">
<path d="M24.33 3.45824C22.95 3.59189 21.45 4.49404 20.55 5.12053L25.09 19.1539C26.65 18.6945 28.1 17.9678 28.5 16.8067C29.11 15.0275 27.31 12.3878 25.22 10.7005C22.59 8.59547 23.12 5.67184 24.33 3.45824Z" fill="#42A717"/>
<path d="M25.06 59.5167C16.77 46.2685 14.84 25.3854 14.66 23.1134L9.89 8.21957C9.89 8.21957 5.24 9.26373 4.9 9.52268C4.9 9.5728 27.31 78.9547 27.31 78.9547C27.62 79.9153 28.66 80.5919 29.85 80.5835C32.46 80.5585 32.32 77.5095 32.32 77.3508C32.33 77.2924 32.23 70.9857 25.06 59.5167Z" fill="#42A717"/>
<path d="M30.44 80.4165C30.44 80.4165 26.12 67.0346 21.27 52.0155C19.77 48.3568 18.59 44.5227 17.67 40.8807C12.63 25.2769 8.02 11.0012 8.02 10.9761C8.19 10.8508 9.34 10.6169 10.54 10.2578L9.89 8.21957C9.89 8.21957 5.24 9.26373 4.9 9.52268C4.9 9.5728 27.31 78.9547 27.31 78.9547C27.62 79.9153 28.66 80.5919 29.85 80.5835C30.08 80.5835 30.28 80.5585 30.47 80.5084C30.47 80.4749 30.45 80.4415 30.44 80.4165Z" fill="white"/>
<path d="M13.85 7.33414L18.13 20.7327L21.14 20.0561L16.81 6.66588L13.85 7.33414Z" fill="#42A717"/>
<path d="M17.52 8.87948L16.81 6.66588L13.85 7.33414L14.53 9.47256L17.52 8.87948Z" fill="white"/>
<path d="M66.63 76.4069H64.32L64.48 78.3282H66.73C66.7 77.7936 66.67 77.142 66.63 76.4069Z" fill="#42A717"/>
<path d="M64.35 30.5728C63.96 22.5036 61.36 19.5465 60.41 18.7363H49.58C48.64 19.5465 46.03 22.5036 45.64 30.5728C45.24 39.0263 44.03 62.9582 43.53 72.9821H66.46C65.87 61.3377 64.74 38.7172 64.35 30.5728ZM55 60.5358C49.74 60.5358 46.99 53.3437 46.99 46.2351C46.99 39.1265 49.74 31.9344 55 31.9344C60.26 31.9344 63.01 39.1265 63.01 46.2351C63.01 53.3437 60.26 60.5358 55 60.5358Z" fill="#42A717"/>
<path d="M46.98 46.2351C46.98 43.7876 47.31 41.3234 47.95 39.1516C48.12 35.6516 48.27 32.6444 48.37 30.5728C48.76 22.5036 51.36 19.5465 52.31 18.7363H49.58C48.64 19.5465 46.03 22.5036 45.64 30.5728C45.24 39.0263 44.03 62.9582 43.53 72.9821H46.26C46.52 67.895 46.95 59.2411 47.37 50.8294C47.11 49.3508 46.98 47.7888 46.98 46.2351Z" fill="white"/>
<path d="M56.87 78.3282H60.37L60.21 76.4069H56.87V78.3282Z" fill="#42A717"/>
<path d="M49.62 78.3282H52.78V76.4069H49.78L49.62 78.3282Z" fill="#42A717"/>
<path d="M43.26 78.3282H45.52L45.67 76.4069H43.36L43.26 78.3282Z" fill="white"/>
<path d="M52.42 5.93079L51.22 15.3115H58.77L57.57 5.93079H52.42Z" fill="#42A717"/>
<path d="M55.15 7.75179H57.8L57.57 5.93079H52.42L51.22 15.3115H54.19L55.15 7.75179Z" fill="white"/>
<path d="M55 57.111C57.165 57.111 58.92 52.2417 58.92 46.2351C58.92 40.2285 57.165 35.3592 55 35.3592C52.835 35.3592 51.08 40.2285 51.08 46.2351C51.08 52.2417 52.835 57.111 55 57.111Z" fill="#42A717"/>
<path d="M52.89 47.6134C52.89 40.9057 55.4 37.1301 56.62 36.7709C56 35.8437 55.39 35.3592 54.99 35.3592C53.85 35.3592 51.07 39.1683 51.07 46.2351C51.07 53.3019 53.85 57.111 54.99 57.111C55.05 57.111 55.11 57.1026 55.17 57.0776C54.05 55.3902 52.89 52.1826 52.89 47.6134Z" fill="white"/>
<path d="M23.33 6.95824C23.33 5.73867 23.75 4.5191 24.33 3.45824C22.95 3.59189 21.45 4.49404 20.55 5.12053L21.47 7.96062C22.21 7.75179 23.37 7.58473 23.33 6.95824Z" fill="white"/>
<path d="M36.42 77.142C36.36 75.8055 35.7 69.148 28.69 57.938C21.7 46.7697 19.4 29.1611 18.86 24.1241L24.14 22.9296C29.87 21.9105 31.81 19.5632 32.43 17.7673C33.62 14.3007 30.82 10.4749 28.06 8.25298C26.25 6.79117 28.97 3.55847 29 3.53341C29.65 2.79833 29.49 1.77088 28.65 1.19451C24.71 -1.50358 19.79 0.935558 17.19 3.04057C17.19 3.04057 3.56 6.11456 2.51 6.75775C1.64 7.28401 0.299996 8.50358 1.01 10.7088L23.36 79.8568C24.15 82.3043 26.82 84.0084 29.85 84.0084C30.44 84.0084 31.03 83.9415 31.61 83.8162C35.1 83.0227 36.84 80.2661 36.42 77.142ZM28.5 16.815C28.1 17.9761 26.65 18.7029 25.09 19.1623L21.47 7.96897L20.55 5.12888C21.45 4.50238 22.95 3.60024 24.33 3.46658C23.75 4.52744 23.33 5.74701 23.33 6.96658C23.33 8.29475 23.84 9.61456 25.21 10.7172C27.31 12.3962 29.11 15.0358 28.5 16.815ZM16.81 6.66587L21.14 20.0644L18.13 20.741L13.85 7.33413L16.81 6.66587ZM29.86 80.5835C28.68 80.5919 27.63 79.9153 27.32 78.9547C27.32 78.9547 4.91 9.56444 4.91 9.52267C5.25 9.27207 9.9 8.21957 9.9 8.21957L14.66 23.1134C14.85 25.3854 16.78 46.2685 25.06 59.5167C32.24 70.9857 32.33 77.3007 32.33 77.3508C32.33 77.5095 32.46 80.5585 29.86 80.5835Z" fill="#333333"/>
<path d="M68.44 30.4308C67.99 20.9582 64.61 17.2828 62.98 16.0549L61.44 4.03461C61.33 3.16587 60.46 2.50597 59.41 2.50597H50.58C49.53 2.50597 48.66 3.16587 48.54 4.03461L47.01 16.0549C45.38 17.2828 42.01 20.9582 41.55 30.4308C41.12 39.3854 39.08 79.9654 39.08 79.9654C39.08 81.5275 40.57 81.7446 41.13 81.7446H68.87C69.43 81.7446 70.92 81.4022 70.92 79.9654C70.91 79.5811 68.97 41.5322 68.44 30.4308ZM64.32 76.4069H66.63C66.67 77.1504 66.7 77.7936 66.73 78.3282H64.48L64.32 76.4069ZM43.53 72.9821C44.03 62.9582 45.24 39.0263 45.64 30.5728C46.03 22.5036 48.63 19.5465 49.58 18.7363H60.41C61.35 19.5465 63.96 22.5036 64.35 30.5728C64.74 38.7172 65.88 61.3377 66.46 72.9821H43.53ZM60.37 78.3282H56.87V76.4069H60.21L60.37 78.3282ZM52.78 78.3282H49.62L49.78 76.4069H52.78V78.3282ZM45.52 78.3282H43.27L43.37 76.4069H45.68L45.52 78.3282ZM51.22 15.3115L52.42 5.93079H57.57L58.77 15.3115H51.22Z" fill="#333333"/>
<path d="M55 31.9427C49.74 31.9427 46.99 39.1348 46.99 46.2434C46.99 53.352 49.74 60.5442 55 60.5442C60.26 60.5442 63.01 53.352 63.01 46.2434C63.01 39.1348 60.26 31.9427 55 31.9427ZM51.08 46.2351C51.08 39.1683 53.86 35.3592 55 35.3592C56.14 35.3592 58.92 39.1683 58.92 46.2351C58.92 53.3019 56.14 57.111 55 57.111C53.86 57.111 51.08 53.3019 51.08 46.2351Z" fill="#333333"/>
</g>
<defs>
<clipPath id="clip0_8_105">
<rect width="70.1" height="84" fill="white" transform="translate(0.809998)"/>
</clipPath>
</defs>
</svg>
