<svg width="83" height="85" viewBox="0 0 83 85" fill="none" xmlns="http://www.w3.org/2000/svg">
<path d="M68.13 33.38C67.86 32.64 68.04 31.78 68.65 31.2C71.07 28.91 72.35 22.95 70.31 16.93L69.74 15.24L53.03 20.9L53.6 22.59C55.5 28.2 60.37 32.31 63.79 32.91C64.57 33.05 65.16 33.6 65.39 34.31L72.57 51L68.13 33.38Z" fill="#42A717"/>
<path d="M56.6 24.51L56.03 22.82L70.6 17.88C70.51 17.56 70.41 17.25 70.31 16.93L69.74 15.24L53.03 20.9L53.6 22.59C55.2 27.3 58.88 30.95 62.05 32.36C59.81 30.51 57.7 27.76 56.6 24.51Z" fill="white"/>
<path d="M20.31 8.12999C20.31 6.91999 19.32 5.92999 18.11 5.92999H13.35C12.14 5.92999 11.15 6.91999 11.15 8.12999V15.79H20.31V8.12999Z" fill="#3FA318"/>
<path d="M13.88 10.32C13.88 9.11 14.87 8.12 16.08 8.12H20.31C20.3 6.91 19.32 5.94 18.11 5.94H13.35C12.14 5.94 11.15 6.93 11.15 8.14V15.8H13.88V10.32Z" fill="white"/>
<path d="M10.73 57.89C10.67 57.31 10.85 56.73 11.24 56.3C11.63 55.87 12.18 55.62 12.77 55.62H17.3C18.45 53.42 21.34 49.2 27.37 47.35V32.98C27.18 26.78 23 21.58 21.48 19.9H9.98C8.46 21.59 4.28 26.79 4.09 32.98V73.26C4.09 74.29 4.75 75.17 5.53 75.17H16.36C13.88 71.12 11.58 65.5 10.73 57.89Z" fill="#42A717"/>
<path d="M6.83 73.25V32.98C7.02 26.78 11.2 21.58 12.72 19.9H9.98C8.46 21.59 4.28 26.79 4.09 32.98V73.26C4.09 74.29 4.75 75.17 5.53 75.17H8.26C7.49 75.16 6.83 74.29 6.83 73.25Z" fill="white"/>
<path d="M30.89 50.74C26.34 51.41 23.64 53.72 22.15 55.62H56.96C56.71 50.34 53.46 47.57 50.57 46.14C50.93 47.9 50.59 49.46 49.92 50.62C48.71 52.71 46.37 53.71 44.1 53.12C43.11 52.86 42.23 52.45 41.38 52.06C39.18 51.04 36.7 49.88 30.89 50.74Z" fill="#44A917"/>
<path d="M33.62 52.1C39.43 51.25 41.91 52.4 44.1 53.42C44.95 53.82 45.83 54.23 46.82 54.48C49.09 55.07 51.43 54.06 52.64 51.98C53.25 50.93 53.59 49.55 53.37 47.99C52.47 47.2 51.5 46.6 50.56 46.14C50.92 47.9 50.58 49.46 49.91 50.62C48.7 52.71 46.36 53.71 44.09 53.12C43.1 52.86 42.22 52.45 41.37 52.06C39.18 51.04 36.7 49.88 30.89 50.74C26.34 51.41 23.64 53.72 22.15 55.62H26.13C27.73 54.1 30.13 52.62 33.62 52.1Z" fill="white"/>
<path d="M15.11 59.71C17.28 73.19 24.51 78.87 26.31 80.1H48.48C49.86 79.15 54.44 75.55 57.45 67.96C58.15 66.21 59.73 65.39 61.13 64.67C63.06 63.68 64.78 62.8 65.28 59.7H15.11V59.71Z" fill="#43A817"/>
<path d="M18.39 61.89H64.57C64.89 61.31 65.14 60.6 65.29 59.71H15.11C17.28 73.19 24.51 78.87 26.31 80.1H27C24.1 77.22 19.95 71.56 18.39 61.89Z" fill="white"/>
<path d="M67.48 55.61H61.06C60.85 49.12 57.27 45.44 54.12 43.45C50.47 41.14 46.7 40.65 46.54 40.63C45.68 40.52 44.84 40.97 44.45 41.75C44.06 42.53 44.21 43.47 44.82 44.09C46.74 46.06 46.85 47.73 46.37 48.56C46.14 48.95 45.7 49.31 45.12 49.16C44.5 49 43.85 48.7 43.1 48.35C40.8 47.28 37.7 45.83 31.46 46.54V32.95C31.46 32.93 31.46 32.91 31.46 32.89C31.24 25.14 26.21 18.98 24.41 17.02V8.13C24.41 4.66 21.59 1.83 18.11 1.83H13.35C9.88 1.83 7.05 4.65 7.05 8.13V17.02C5.26 18.98 0.22 25.14 0 32.89C0 32.91 0 32.93 0 32.95V73.26C0 76.57 2.48 79.26 5.54 79.26H19.37C22.13 82.44 24.5 83.82 24.71 83.94C25.02 84.11 25.36 84.2 25.71 84.2H49.07C49.42 84.2 49.77 84.11 50.07 83.94C50.36 83.78 57.11 79.9 61.25 69.48C61.38 69.16 62.24 68.72 63 68.33C65.44 67.08 69.52 64.99 69.52 57.67C69.52 56.53 68.61 55.61 67.48 55.61ZM61.13 64.68C59.73 65.4 58.14 66.21 57.45 67.97C54.44 75.56 49.86 79.15 48.48 80.11H26.31C24.51 78.88 17.29 73.2 15.11 59.72H65.28C64.78 62.81 63.07 63.68 61.13 64.68ZM4.1 73.25V32.98C4.29 26.78 8.47 21.58 9.99 19.9H21.48C23 21.59 27.18 26.79 27.37 32.98V47.35C21.35 49.19 18.45 53.42 17.3 55.62H12.77C12.19 55.62 11.63 55.87 11.24 56.3C10.85 56.73 10.67 57.31 10.73 57.89C11.58 65.5 13.87 71.12 16.37 75.16H5.54C4.76 75.16 4.1 74.29 4.1 73.25ZM11.15 8.13C11.15 6.92 12.14 5.93 13.35 5.93H18.11C19.32 5.93 20.31 6.92 20.31 8.13V15.79H11.15V8.13ZM44.09 53.12C46.36 53.71 48.7 52.7 49.91 50.62C50.58 49.46 50.92 47.9 50.56 46.14C53.45 47.57 56.7 50.34 56.95 55.62H22.15C23.64 53.72 26.34 51.41 30.89 50.74C36.7 49.89 39.18 51.04 41.37 52.06C42.22 52.46 43.1 52.87 44.09 53.12Z" fill="black" fill-opacity="0.8"/>
<path d="M82.75 74.79L72.32 33.25C75.57 29.24 76.38 22.09 74.19 15.62L72.96 11.99C72.79 11.48 72.41 11.05 71.93 10.81C71.44 10.57 70.88 10.53 70.37 10.71L70.09 10.8L66.86 1.38C66.49 0.31 65.33 -0.26 64.26 0.11C63.19 0.48 62.62 1.64 62.99 2.71L66.21 12.12L64.55 12.68L61.33 3.28C60.96 2.21 59.8 1.64 58.73 2C57.66 2.37 57.09 3.53 57.46 4.6L60.68 13.99L59.02 14.55L55.8 5.17C55.43 4.1 54.27 3.53 53.2 3.9C52.13 4.27 51.56 5.43 51.93 6.5L55.14 15.87L53.48 16.43L50.27 7.06C49.9 5.99 48.74 5.42 47.67 5.79C46.6 6.16 46.03 7.32 46.4 8.39L49.61 17.75C48.65 18.17 48.15 19.27 48.5 20.28L49.73 23.91C52.03 30.71 57.5 35.35 61.95 36.68L78.89 76.1C79.22 76.88 79.98 77.34 80.77 77.34C80.93 77.33 83.18 77.2 82.75 74.79ZM63.79 32.92C60.37 32.32 55.5 28.2 53.6 22.6L53.03 20.91L69.74 15.25L70.31 16.94C72.35 22.96 71.07 28.92 68.65 31.21C68.04 31.79 67.87 32.65 68.13 33.39L72.56 51.02L65.38 34.33C65.16 33.61 64.56 33.06 63.79 32.92Z" fill="black" fill-opacity="0.8"/>
</svg>
