<svg width="34" height="34" viewBox="0 0 34 34" fill="none" xmlns="http://www.w3.org/2000/svg">
<path d="M17.0022 2.83325C20.8513 2.83325 21.3316 2.84742 22.8417 2.91825C24.3505 2.98909 25.3776 3.22567 26.2814 3.577C27.2164 3.93684 28.0041 4.42417 28.7917 5.21042C29.5121 5.9186 30.0695 6.77525 30.4252 7.72075C30.7751 8.62317 31.0131 9.65167 31.0839 11.1604C31.1505 12.6706 31.1689 13.1508 31.1689 16.9999C31.1689 20.849 31.1547 21.3293 31.0839 22.8394C31.0131 24.3482 30.7751 25.3753 30.4252 26.2791C30.0705 27.2251 29.513 28.082 28.7917 28.7894C28.0834 29.5095 27.2268 30.0669 26.2814 30.4228C25.379 30.7728 24.3505 31.0108 22.8417 31.0816C21.3316 31.1482 20.8513 31.1666 17.0022 31.1666C13.1532 31.1666 12.6729 31.1524 11.1627 31.0816C9.65399 31.0108 8.6269 30.7728 7.72307 30.4228C6.7772 30.0679 5.9204 29.5104 5.21274 28.7894C4.49223 28.0813 3.93481 27.2247 3.57932 26.2791C3.22799 25.3767 2.9914 24.3482 2.92057 22.8394C2.85399 21.3293 2.83557 20.849 2.83557 16.9999C2.83557 13.1508 2.84974 12.6706 2.92057 11.1604C2.9914 9.65025 3.22799 8.62459 3.57932 7.72075C3.93382 6.77467 4.49138 5.91779 5.21274 5.21042C5.92061 4.48966 6.77734 3.9322 7.72307 3.577C8.6269 3.22567 9.65257 2.98909 11.1627 2.91825C12.6729 2.85167 13.1532 2.83325 17.0022 2.83325ZM17.0022 9.91659C15.1236 9.91659 13.3219 10.6629 11.9936 11.9912C10.6652 13.3196 9.9189 15.1213 9.9189 16.9999C9.9189 18.8785 10.6652 20.6802 11.9936 22.0086C13.3219 23.337 15.1236 24.0833 17.0022 24.0833C18.8809 24.0833 20.6825 23.337 22.0109 22.0086C23.3393 20.6802 24.0856 18.8785 24.0856 16.9999C24.0856 15.1213 23.3393 13.3196 22.0109 11.9912C20.6825 10.6629 18.8809 9.91659 17.0022 9.91659ZM26.2106 9.56242C26.2106 9.09276 26.024 8.64235 25.6919 8.31025C25.3598 7.97815 24.9094 7.79158 24.4397 7.79158C23.9701 7.79158 23.5197 7.97815 23.1876 8.31025C22.8555 8.64235 22.6689 9.09276 22.6689 9.56242C22.6689 10.0321 22.8555 10.4825 23.1876 10.8146C23.5197 11.1467 23.9701 11.3333 24.4397 11.3333C24.9094 11.3333 25.3598 11.1467 25.6919 10.8146C26.024 10.4825 26.2106 10.0321 26.2106 9.56242ZM17.0022 12.7499C18.1294 12.7499 19.2104 13.1977 20.0074 13.9947C20.8045 14.7917 21.2522 15.8727 21.2522 16.9999C21.2522 18.1271 20.8045 19.2081 20.0074 20.0051C19.2104 20.8022 18.1294 21.2499 17.0022 21.2499C15.8751 21.2499 14.7941 20.8022 13.997 20.0051C13.2 19.2081 12.7522 18.1271 12.7522 16.9999C12.7522 15.8727 13.2 14.7917 13.997 13.9947C14.7941 13.1977 15.8751 12.7499 17.0022 12.7499Z" fill="#7DCF46"/>
</svg>
