<svg width="17" height="16" viewBox="0 0 17 16" fill="none" xmlns="http://www.w3.org/2000/svg">
<path d="M8.06432 3.18673L8.42876 3.54887L8.78086 3.17472C8.88809 3.06077 8.99096 2.95008 9.09059 2.84289C10.0558 1.80442 10.7158 1.09419 12.0711 0.934704C13.4835 0.771029 14.8545 1.42584 15.6915 2.50109C16.52 3.56543 16.8091 5.01901 16.093 6.47401L16.093 6.47412C15.6693 7.33547 14.7804 8.40114 13.7432 9.4937L13.7431 9.4938C13.0297 10.2457 12.2819 10.9746 11.5996 11.6398C11.1925 12.0365 10.8088 12.4105 10.4696 12.7532L8.4128 14.8304L6.77913 13.2296C6.7791 13.2296 6.77906 13.2295 6.77903 13.2295C6.38143 12.8397 5.9545 12.4434 5.51583 12.0363C4.59046 11.1775 3.61287 10.2702 2.74831 9.27251C1.4828 7.81214 0.565418 6.26805 0.502442 4.611C0.426805 2.3717 2.14157 0.927269 4.1802 0.95353C5.10364 0.966297 5.73558 1.20208 6.29222 1.57501C6.78714 1.90659 7.22208 2.34289 7.75924 2.88171C7.85721 2.97998 7.95857 3.08166 8.06432 3.18673Z" fill="white" stroke="#7DCF46"/>
</svg>
