<svg width="35" height="33" viewBox="0 0 35 33" fill="none" xmlns="http://www.w3.org/2000/svg">
<path d="M31.1445 0.463356C29.6488 0.716579 28.3609 0.94556 28.2816 0.975193C28.2051 1.00213 28.0902 1.06678 28.0273 1.11527C27.8086 1.28499 27.8223 1.25805 27.1578 2.93633C27.0074 3.31348 26.5125 4.56613 26.0558 5.71642L25.2273 7.81225H25.0168C24.9019 7.81225 23.0973 7.85535 21.0082 7.90654C18.9219 7.95772 15.2195 8.04931 12.7832 8.10858C0.391003 8.41299 0.836705 8.39952 0.694518 8.44801C0.516783 8.50458 0.42108 8.56654 0.281627 8.70662C0.142174 8.8494 0.0273304 9.08376 0.00818973 9.27234C-1.33947e-05 9.36393 0.0820179 10.1263 0.243346 11.422C0.380065 12.5265 0.650768 14.7382 0.847643 16.3384C1.40272 20.8614 1.3535 20.5031 1.43827 20.689C1.5121 20.8533 1.71991 21.0769 1.87577 21.155C2.06717 21.252 1.61327 21.2116 8.36717 21.7396C9.69881 21.8447 11.8699 22.0144 13.1933 22.1167C14.5168 22.2218 16.4883 22.3754 17.5765 22.4616L19.5508 22.6151L21.3555 24.0105C22.3453 24.7783 23.2258 25.4787 23.3078 25.5676C23.4855 25.7562 23.6687 26.101 23.7098 26.3327C23.789 26.7664 23.6086 27.1166 23.2258 27.2647L23.0644 27.3267L20.4805 27.3483C19.0586 27.359 14.1996 27.3806 9.67967 27.3914L1.46288 27.4129L1.30428 27.4749C1.0828 27.5611 0.850377 27.7793 0.749205 27.9948C0.68358 28.1376 0.672643 28.1968 0.672643 28.38C0.675377 28.512 0.691783 28.6413 0.721862 28.714C0.782018 28.873 0.937877 29.0723 1.0828 29.1747C1.32069 29.3417 1.35624 29.3471 2.28866 29.3633L3.14452 29.3767L2.99686 29.4899C2.68514 29.7269 2.41444 30.131 2.30233 30.5297C2.26952 30.6509 2.25585 30.7937 2.25858 31.0469C2.25858 31.3514 2.26952 31.4268 2.33241 31.6127C2.60311 32.4074 3.29217 32.938 4.12889 32.9919C4.88905 33.0377 5.65194 32.6175 6.01014 31.9548C6.33827 31.346 6.31913 30.6025 5.96366 30.0098C5.85428 29.8293 5.62186 29.5761 5.42772 29.4252L5.31835 29.339H7.6453C8.92499 29.3363 12.7449 29.3283 16.1355 29.3202L22.2988 29.304L22.1758 29.3821C21.5879 29.7647 21.2379 30.4489 21.2816 31.1412C21.3363 32.0302 21.998 32.7764 22.8922 32.9569C23.3351 33.0458 23.7234 32.9946 24.1691 32.7791C24.418 32.6633 24.4863 32.6121 24.6914 32.41C24.8828 32.2215 24.9484 32.1326 25.0551 31.9225C25.2301 31.5776 25.2765 31.3837 25.2765 31.02C25.2765 30.6671 25.2301 30.4651 25.0769 30.158C24.9457 29.8967 24.7598 29.665 24.541 29.4899C24.3578 29.3471 24.0023 29.1585 23.8547 29.1316C23.718 29.1074 23.718 29.0804 23.8601 29.0265C24.0461 28.9565 24.3469 28.7868 24.5547 28.6359C25.0769 28.2534 25.5855 27.5072 25.6785 26.9873C25.7195 26.7448 25.7195 26.2599 25.6785 26.0229C25.6265 25.7454 25.4953 25.3548 25.3695 25.1069C25.0168 24.42 24.6996 24.1102 23.0453 22.8333C22.3562 22.3026 21.793 21.8554 21.793 21.842C21.793 21.8285 21.9898 21.3167 22.2332 20.7078C22.4765 20.0963 22.7691 19.3555 22.8867 19.0592C23.0043 18.7629 23.3242 17.9574 23.5976 17.2678C23.8711 16.5781 24.1937 15.7673 24.314 15.4629C24.5848 14.7759 25.1808 13.2781 26.0859 10.991C26.1898 10.7324 26.4961 9.95658 26.7695 9.26695C27.3 7.92809 27.3711 7.75299 28.1367 5.81878C28.6344 4.56344 28.9515 3.76336 29.2086 3.11144C29.2851 2.91748 29.3508 2.75854 29.3535 2.75315C29.359 2.74776 30.4719 2.55919 31.8281 2.33021C34.5598 1.87225 34.4723 1.8938 34.7101 1.64327C34.9098 1.43315 34.9836 1.24727 34.9836 0.969803C34.9836 0.711193 34.9152 0.522621 34.7594 0.347519C34.5734 0.137394 34.2672 -0.00268555 34.0047 0.00270081C33.9281 0.00270081 32.6402 0.210129 31.1445 0.463356ZM24.418 9.51478C23.6824 11.3843 23.1547 12.7151 23.1246 12.769L23.089 12.8363H22.1894H21.2871V11.1123V9.38817L22.3945 9.35854C23.0043 9.34237 23.7262 9.32891 23.9996 9.32621L24.4945 9.32082L24.418 9.51478ZM20.5844 11.1176L20.5762 12.8363L18.9027 12.8444L17.2265 12.8498V11.1661V9.48246L17.5492 9.47976C17.7242 9.47707 18.4051 9.46091 19.0586 9.44474C19.7121 9.42589 20.3246 9.40703 20.4203 9.40703L20.5898 9.40164L20.5844 11.1176ZM16.5238 11.1715L16.5156 12.8363H14.8422H13.166L13.1578 11.2119L13.1523 9.59021L13.2672 9.58752C13.3328 9.58482 13.9207 9.56866 14.5742 9.5525C15.2277 9.53364 15.9359 9.51478 16.1465 9.51478L16.5293 9.5094L16.5238 11.1715ZM12.4687 11.2335V12.8498L10.7953 12.8444L9.11913 12.8363L9.11092 11.2658C9.10819 10.4038 9.10819 9.69527 9.11092 9.69527C9.13006 9.68719 11.498 9.62523 11.9574 9.62254L12.4687 9.61715V11.2335ZM8.40819 11.2739V12.8363L6.73475 12.8417L5.05858 12.8498V11.3143V9.77878L5.43592 9.77609C5.641 9.7734 6.35194 9.75723 7.01366 9.73837C7.67538 9.71952 8.26053 9.70605 8.31249 9.70874L8.40819 9.71144V11.2739ZM4.34764 11.3278V12.8498H3.13358C2.34061 12.8498 1.91131 12.839 1.90038 12.8229C1.87303 12.7798 1.5285 9.90809 1.54764 9.88923C1.56131 9.87576 3.21835 9.82189 4.05506 9.81111L4.34764 9.80572V11.3278ZM4.34764 15.0723V16.6212H3.3496C2.79999 16.6212 2.35155 16.6158 2.35155 16.6105C2.35155 16.5916 1.99881 13.7092 1.98514 13.6095L1.97147 13.5233H3.16092H4.34764V15.0723ZM8.42186 15.0723V16.6212H6.74022H5.05858V15.0723V13.5233H6.74022H8.42186V15.0723ZM12.4687 15.0723V16.6212H10.7871H9.10546V15.0723V13.5233H10.7871H12.4687V15.0723ZM16.5238 15.0642L16.5156 16.6078H14.8422H13.166L13.1578 15.0642L13.1523 13.5233H14.8394H16.5293L16.5238 15.0642ZM20.5898 15.0723V16.6212H18.9082H17.2265V15.0723V13.5233H18.9082H20.5898V15.0723ZM22.7664 13.6903C22.6816 13.9085 21.7246 16.3195 21.6262 16.5593C21.607 16.6132 21.5824 16.6212 21.4375 16.6212H21.2734V15.0723V13.5233H22.0527H22.832L22.7664 13.6903ZM4.34764 18.4073V19.5198L3.53553 19.4552C3.0871 19.4202 2.71249 19.3852 2.70428 19.3744C2.69335 19.3636 2.63592 18.9245 2.57303 18.3992C2.51014 17.8739 2.45272 17.4105 2.44452 17.3674L2.42811 17.2947H3.38788H4.34764V18.4073ZM8.42186 18.5608V19.8269H8.34256C8.30155 19.8269 7.5742 19.7731 6.72928 19.7057C5.88436 19.6384 5.16249 19.5845 5.12694 19.5845H5.05858V18.4396V17.2947H6.74022H8.42186V18.5608ZM12.4687 18.7225C12.4687 19.5064 12.4605 20.1502 12.4496 20.1502C12.3867 20.1529 9.16835 19.9024 9.141 19.8916C9.11366 19.8835 9.10546 19.6007 9.10546 18.5878V17.2947H10.7871H12.4687V18.7225ZM16.5238 18.8949L16.5293 20.4789L16.3652 20.4627C16.275 20.4546 15.5558 20.398 14.7656 20.3388C13.9754 20.2795 13.2945 20.2229 13.248 20.2176L13.166 20.2041L13.1715 18.7575C13.1769 17.9601 13.1797 17.3055 13.1797 17.3001C13.1797 17.2974 13.9316 17.2974 14.8476 17.3001L16.5156 17.3082L16.5238 18.8949ZM20.5898 18.2376V19.1777L20.2918 19.9266C20.1305 20.3388 19.9855 20.7025 19.9746 20.7375C19.9609 20.7833 19.9445 20.7967 19.9117 20.7833C19.7914 20.7321 19.5973 20.7105 18.5937 20.6351C18.0004 20.5893 17.448 20.5462 17.3715 20.5381L17.2265 20.522V18.9083V17.2947H18.9082H20.5898V18.2376ZM21.3281 17.3136C21.3281 17.327 21.3144 17.354 21.3008 17.3755C21.2789 17.4078 21.2734 17.4052 21.2734 17.354C21.2734 17.3216 21.2871 17.2947 21.3008 17.2947C21.3172 17.2947 21.3281 17.3028 21.3281 17.3136ZM4.74139 29.9694C5.03944 30.1095 5.28553 30.3896 5.37303 30.694C5.44686 30.9473 5.42225 31.2948 5.31014 31.5211C5.20624 31.7339 4.96014 31.9763 4.75233 32.0706C4.03592 32.3912 3.21835 31.9656 3.08436 31.1978C2.9996 30.7156 3.2703 30.2038 3.72694 29.9829C4.02772 29.8374 4.44608 29.832 4.74139 29.9694ZM23.8027 29.9856C24.0215 30.0906 24.2594 30.3304 24.3523 30.5351C24.8008 31.5345 23.7672 32.5205 22.7582 32.0572C22.3125 31.8551 22.0363 31.3298 22.1156 30.8503C22.2469 30.0772 23.0945 29.6407 23.8027 29.9856Z" fill="#7DCF46"/>
</svg>
