<svg width="33" height="29" viewBox="0 0 33 29" fill="none" xmlns="http://www.w3.org/2000/svg">
<path d="M15.6357 5.35306L16.3601 6.06393L17.0602 5.32916C17.2685 5.11055 17.4682 4.89825 17.6616 4.69273C19.535 2.70197 20.8102 1.34689 23.4333 1.04201C26.1704 0.728723 28.8238 1.98267 30.4411 4.03471C32.0406 6.06417 32.5966 8.8302 31.216 11.6006L31.2159 11.6009C30.3967 13.246 28.6749 15.2856 26.6609 17.3811L26.6607 17.3813C25.2758 18.8229 23.8252 20.2195 22.5008 21.4944C21.7105 22.2554 20.9651 22.973 20.3055 23.631C20.3055 23.6311 20.3055 23.6311 20.3054 23.6311L16.3283 27.5981L13.1727 24.5442C13.1726 24.5441 13.1726 24.5441 13.1725 24.544C12.3992 23.7952 11.5695 23.0346 10.7174 22.2536C8.92146 20.6074 7.02597 18.8699 5.34867 16.9581C2.89268 14.1589 1.12096 11.2082 0.999337 8.04881C0.853851 3.79332 4.15396 1.02781 8.11065 1.07822C9.90045 1.10269 11.1235 1.55396 12.1998 2.26619C13.158 2.90025 13.9999 3.7343 15.0428 4.76758C15.2331 4.95611 15.4301 5.15127 15.6357 5.35306Z" fill="white" stroke="#7DCF46" stroke-width="2"/>
</svg>
